<svg width="70" height="70" viewBox="0 0 70 70" fill="none" xmlns="http://www.w3.org/2000/svg">
<path d="M15.8084 51.5166C15.4473 51.4132 15.0747 51.3604 14.702 51.3604C13.6785 51.3604 12.6537 51.7505 11.8739 52.5303C11.5207 52.8835 11.2402 53.295 11.0399 53.752C11.0393 53.7531 11.0335 53.7643 11.0194 53.791C11.0059 53.8166 10.9874 53.8516 10.9637 53.8955C10.9163 53.9834 10.8495 54.1057 10.7664 54.2578C10.6003 54.5623 10.3688 54.9852 10.0936 55.4863C9.54302 56.4887 8.81758 57.8055 8.09262 59.1211C6.64527 61.7476 5.19242 64.3806 5.13657 64.4893L4.76938 65.2031L5.47739 64.8242L16.2254 59.0605L16.2264 59.0615C16.3857 58.9835 16.5928 58.892 16.7645 58.7852C17.0422 58.6175 17.3 58.4157 17.5301 58.1855C18.5938 57.1217 18.9307 55.603 18.5428 54.25L21.0516 56.7588C20.7948 57.9325 20.2134 59.0482 19.3026 59.959C18.7453 60.5148 18.1056 60.9607 17.3875 61.2852L17.3797 61.2881L17.3719 61.293L2.18442 69.4346C1.99783 69.5347 1.79434 69.5829 1.59262 69.583H1.59164C1.26448 69.583 0.941444 69.4551 0.700043 69.2109C0.309528 68.8159 0.225184 68.2111 0.493011 67.7246L8.75864 52.7061L8.76352 52.6973L8.76743 52.6875C9.09198 51.966 9.54033 51.317 10.1004 50.7568C11.0107 49.8467 12.1257 49.2639 13.2987 49.0068L15.8084 51.5166Z" fill="#2060CD" stroke="#F4F5F6" stroke-width="0.5"/>
<path d="M36.3194 25.8623C36.2909 18.9048 44.8524 15.359 49.7647 20.2939L49.7686 20.2979C52.8181 23.2239 52.8183 28.5026 49.7686 31.4287L49.7647 31.4326C48.2295 32.9676 46.2128 33.7354 44.1953 33.7354H44.1905C40.0078 33.822 36.2355 30.1429 36.3194 25.8682V25.8623ZM44.1905 20.498C41.4215 20.4466 38.9312 22.7911 38.8301 25.5947L38.8272 25.8633C38.8272 27.2963 39.3862 28.6448 40.3994 29.6582C43.6972 32.9708 49.4018 30.6841 49.5606 26.083L49.5635 25.8623C49.6171 22.942 47.0575 20.4444 44.2002 20.498H44.1905Z" fill="black" stroke="#F4F5F6" stroke-width="0.5"/>
<path d="M68.4414 0.250977C68.7824 0.236544 69.1146 0.361486 69.3613 0.59668C69.6081 0.832029 69.7486 1.15803 69.75 1.49902C69.7507 1.70769 69.7478 6.73102 67.8574 13.8281L67.6689 14.5195C64.4346 25.7261 58.1335 37.1088 47.3389 44.7061L47.2266 44.7852L47.2334 44.9229L47.833 57.2744C47.85 57.6276 47.7178 57.9717 47.4678 58.2217L36.3701 69.3193C35.6946 70.016 34.4509 69.6471 34.2617 68.6992L34.2607 68.6953L31.332 55.1523L31.2598 54.8184L30.9629 54.9883C29.2416 55.9757 27.7568 56.8065 26.666 57.4102L24.7324 58.4688C24.2492 58.7297 23.645 58.6448 23.252 58.252H23.251L17.5303 52.5303L11.9258 46.9258C11.5519 46.5518 11.4524 45.9833 11.6777 45.5049C11.6934 45.4717 12.9684 42.7759 15.0078 38.9775L15.165 38.6846L14.8398 38.6152L1.23926 35.6738C0.790704 35.5768 0.430395 35.242 0.300781 34.8018C0.1714 34.3615 0.292814 33.8859 0.617188 33.5615L11.7129 22.4668C11.9632 22.2165 12.3073 22.0826 12.6602 22.1006L25.0156 22.7012L25.1475 22.708L25.2275 22.6025C30.9493 15.0085 38.0735 9.5379 46.4834 5.55664C53.1233 2.47281 60.2638 0.701102 67.7188 0.287109L68.4414 0.250977ZM44.4297 46.7197C40.9318 49.0665 37.0703 51.4222 33.6953 53.4033L33.5391 53.4941L33.5771 53.6709L36.1279 65.4688L36.2256 65.917L36.5498 65.5928L45.2227 56.9189L45.3018 56.8408L45.2959 56.7305L44.8184 46.915L44.7969 46.4736L44.4297 46.7197ZM20.1904 51.6436L20.3672 51.8203L24.2285 55.6826L24.3613 55.8145L24.5254 55.7246C25.6024 55.1325 27.4886 54.0853 29.792 52.7617L30.0752 52.5986L29.8438 52.3682L24.832 47.3555L24.6553 47.1787L20.1904 51.6436ZM46.9004 8.13672C41.2466 10.851 36.1063 14.4963 31.6172 18.9854C26.8749 23.7276 22.1007 31.3995 18.7178 37.4375L18.626 37.6025L24.6553 43.6318L32.0791 36.208C32.5688 35.7184 33.3628 35.7184 33.8525 36.208C34.3421 36.6977 34.3421 37.4908 33.8525 37.9805L26.6055 45.2285L26.4287 45.4053L32.3184 51.2949L32.4844 51.1973C35.7609 49.2725 39.492 47.0001 42.8594 44.7529C46.2228 42.5085 49.2388 40.2798 51.0752 38.4434C56.0712 33.4474 59.49 28.0183 61.8262 23.0596L61.9014 22.9014L61.7773 22.7764L47.1855 8.18457L47.0596 8.05957L46.9004 8.13672ZM17.209 40.1885C15.9181 42.5907 14.9426 44.5345 14.4082 45.6221L14.3291 45.7832L14.4561 45.9092L18.417 49.8701L22.8818 45.4053L17.3682 39.8916L17.209 40.1885ZM4.0166 33.709L4.46484 33.8057L16.2432 36.3525L16.4238 36.3916L16.5137 36.2295C18.6152 32.4632 21.0378 28.5185 23.1318 25.5039L23.3887 25.1328L22.9385 25.1113L13.2031 24.6377L13.0928 24.6328L4.0166 33.709ZM66.9014 2.85156C60.9692 3.2793 55.2524 4.61028 49.8564 6.81934L49.5088 6.96191L62.9854 20.4385L63.127 20.0889C64.0259 17.8679 64.7083 15.7902 65.2246 13.9502C66.5733 9.14341 67.0205 5.20271 67.1689 3.11914L67.1895 2.83105L66.9014 2.85156Z" fill="black" stroke="#F4F5F6" stroke-width="0.5"/>
</svg>
