<svg width="80" height="80" viewBox="0 0 80 80" fill="none" xmlns="http://www.w3.org/2000/svg">
<mask id="path-1-inside-1_63_346" fill="white">
<path d="M77.3251 60.5283V52.907C77.3221 49.9889 76.4613 47.1356 74.8492 44.6995C73.237 42.2635 70.9441 40.3514 68.2535 39.1994L61.3135 21.7212C61.1516 21.3133 60.8337 20.9863 60.4297 20.812C60.0257 20.6377 59.5688 20.6304 59.1595 20.7918C58.7502 20.9532 58.422 21.27 58.247 21.6725C58.0721 22.0751 58.0648 22.5304 58.2268 22.9383L64.2517 38.1116C63.6238 38.0324 62.9916 37.9927 62.3587 37.9928H17.6415C17.0714 37.993 16.5018 38.0256 15.9354 38.0902L21.9517 22.9383C22.1136 22.5304 22.1063 22.0751 21.9314 21.6725C21.7565 21.27 21.4283 20.9532 21.0189 20.7918C20.6096 20.6304 20.1527 20.6377 19.7487 20.812C19.3448 20.9863 19.0269 21.3133 18.8649 21.7212L11.9606 39.1099C9.21601 40.2352 6.86845 42.1471 5.21538 44.6033C3.5623 47.0595 2.67813 49.9494 2.67489 52.9069V60.5282C1.89727 60.7844 1.22037 61.2782 0.740229 61.9394C0.26009 62.6006 0.00109715 63.3957 0 64.2118V66.27C0.0011641 67.2985 0.411659 68.2845 1.14143 69.0117C1.8712 69.7389 2.86065 70.148 3.89271 70.1492H6.24141V75.6939C6.24271 76.8356 6.69838 77.9301 7.50846 78.7373C8.31854 79.5446 9.41688 79.9987 10.5625 80H21.1109C22.2566 79.9987 23.3549 79.5446 24.165 78.7373C24.9751 77.9301 25.4307 76.8356 25.432 75.6939V70.1492H54.5681V75.6939C54.5693 76.8355 55.025 77.93 55.835 78.7373C56.6451 79.5446 57.7434 79.9987 58.8891 80H69.4373C70.583 79.9987 71.6813 79.5446 72.4914 78.7373C73.3015 77.9301 73.7572 76.8356 73.7585 75.6939V70.1492H76.1071C77.1392 70.1481 78.1287 69.739 78.8585 69.0118C79.5883 68.2845 79.9988 67.2985 80 66.27V64.2118C79.9989 63.3957 79.7399 62.6006 79.2598 61.9394C78.7796 61.2782 78.1027 60.7845 77.3251 60.5283ZM5.99439 52.907C5.99718 50.5251 6.73409 48.2015 8.10542 46.2506C9.47675 44.2997 11.4163 42.8157 13.6618 41.9992C13.722 41.9825 13.7812 41.9625 13.8391 41.9392C15.0619 41.5164 16.3471 41.3006 17.6414 41.3008H62.3587C63.69 41.3001 65.0114 41.528 66.2651 41.9744C66.3461 42.0123 66.43 42.0436 66.516 42.068C68.7174 42.9088 70.6114 44.3946 71.9484 46.3295C73.2854 48.2644 74.0027 50.5577 74.0056 52.907V60.3329H54.321V55.4782C54.3161 54.3366 53.8569 53.2435 53.0443 52.4388C52.2316 51.6341 51.1318 51.1835 49.9862 51.1858H30.0137C28.8681 51.1835 27.7683 51.6341 26.9557 52.4389C26.1431 53.2436 25.684 54.3366 25.6791 55.4782V60.3328H5.99441L5.99439 52.907ZM28.9985 60.3329V55.4782C29.0025 55.2136 29.1116 54.9614 29.3019 54.7768C29.4922 54.5923 29.7481 54.4904 30.0137 54.4936H49.9862C50.2518 54.4904 50.5078 54.5922 50.6981 54.7768C50.8885 54.9614 50.9976 55.2136 51.0015 55.4782V60.3328L28.9985 60.3329ZM22.1125 75.694C22.1122 75.9586 22.0066 76.2124 21.8189 76.3995C21.6311 76.5866 21.3765 76.6919 21.1109 76.6922H10.5625C10.297 76.6919 10.0424 76.5866 9.85458 76.3995C9.6668 76.2124 9.56119 75.9586 9.56091 75.694V70.1492H22.1125L22.1125 75.694ZM70.4391 75.694C70.4388 75.9587 70.3332 76.2124 70.1454 76.3995C69.9576 76.5867 69.703 76.6919 69.4374 76.6922H58.8891C58.6235 76.6919 58.3689 76.5866 58.1812 76.3995C57.9934 76.2123 57.8878 75.9586 57.8876 75.694V70.1492H70.4391L70.4391 75.694ZM76.6805 66.27C76.6803 66.4215 76.6199 66.5667 76.5124 66.6738C76.4049 66.7809 76.2592 66.8411 76.1072 66.8413H3.89271C3.74073 66.8411 3.59503 66.7809 3.48758 66.6738C3.38012 66.5667 3.31967 66.4215 3.3195 66.27V64.2118C3.31968 64.0604 3.38013 63.9152 3.48759 63.8081C3.59505 63.7011 3.74075 63.6408 3.89271 63.6407H76.1072C76.2592 63.6408 76.4049 63.701 76.5124 63.8081C76.6198 63.9152 76.6803 64.0604 76.6805 64.2118V66.27Z"/>
</mask>
<path d="M77.3251 60.5283V52.907C77.3221 49.9889 76.4613 47.1356 74.8492 44.6995C73.237 42.2635 70.9441 40.3514 68.2535 39.1994L61.3135 21.7212C61.1516 21.3133 60.8337 20.9863 60.4297 20.812C60.0257 20.6377 59.5688 20.6304 59.1595 20.7918C58.7502 20.9532 58.422 21.27 58.247 21.6725C58.0721 22.0751 58.0648 22.5304 58.2268 22.9383L64.2517 38.1116C63.6238 38.0324 62.9916 37.9927 62.3587 37.9928H17.6415C17.0714 37.993 16.5018 38.0256 15.9354 38.0902L21.9517 22.9383C22.1136 22.5304 22.1063 22.0751 21.9314 21.6725C21.7565 21.27 21.4283 20.9532 21.0189 20.7918C20.6096 20.6304 20.1527 20.6377 19.7487 20.812C19.3448 20.9863 19.0269 21.3133 18.8649 21.7212L11.9606 39.1099C9.21601 40.2352 6.86845 42.1471 5.21538 44.6033C3.5623 47.0595 2.67813 49.9494 2.67489 52.9069V60.5282C1.89727 60.7844 1.22037 61.2782 0.740229 61.9394C0.26009 62.6006 0.00109715 63.3957 0 64.2118V66.27C0.0011641 67.2985 0.411659 68.2845 1.14143 69.0117C1.8712 69.7389 2.86065 70.148 3.89271 70.1492H6.24141V75.6939C6.24271 76.8356 6.69838 77.9301 7.50846 78.7373C8.31854 79.5446 9.41688 79.9987 10.5625 80H21.1109C22.2566 79.9987 23.3549 79.5446 24.165 78.7373C24.9751 77.9301 25.4307 76.8356 25.432 75.6939V70.1492H54.5681V75.6939C54.5693 76.8355 55.025 77.93 55.835 78.7373C56.6451 79.5446 57.7434 79.9987 58.8891 80H69.4373C70.583 79.9987 71.6813 79.5446 72.4914 78.7373C73.3015 77.9301 73.7572 76.8356 73.7585 75.6939V70.1492H76.1071C77.1392 70.1481 78.1287 69.739 78.8585 69.0118C79.5883 68.2845 79.9988 67.2985 80 66.27V64.2118C79.9989 63.3957 79.7399 62.6006 79.2598 61.9394C78.7796 61.2782 78.1027 60.7845 77.3251 60.5283ZM5.99439 52.907C5.99718 50.5251 6.73409 48.2015 8.10542 46.2506C9.47675 44.2997 11.4163 42.8157 13.6618 41.9992C13.722 41.9825 13.7812 41.9625 13.8391 41.9392C15.0619 41.5164 16.3471 41.3006 17.6414 41.3008H62.3587C63.69 41.3001 65.0114 41.528 66.2651 41.9744C66.3461 42.0123 66.43 42.0436 66.516 42.068C68.7174 42.9088 70.6114 44.3946 71.9484 46.3295C73.2854 48.2644 74.0027 50.5577 74.0056 52.907V60.3329H54.321V55.4782C54.3161 54.3366 53.8569 53.2435 53.0443 52.4388C52.2316 51.6341 51.1318 51.1835 49.9862 51.1858H30.0137C28.8681 51.1835 27.7683 51.6341 26.9557 52.4389C26.1431 53.2436 25.684 54.3366 25.6791 55.4782V60.3328H5.99441L5.99439 52.907ZM28.9985 60.3329V55.4782C29.0025 55.2136 29.1116 54.9614 29.3019 54.7768C29.4922 54.5923 29.7481 54.4904 30.0137 54.4936H49.9862C50.2518 54.4904 50.5078 54.5922 50.6981 54.7768C50.8885 54.9614 50.9976 55.2136 51.0015 55.4782V60.3328L28.9985 60.3329ZM22.1125 75.694C22.1122 75.9586 22.0066 76.2124 21.8189 76.3995C21.6311 76.5866 21.3765 76.6919 21.1109 76.6922H10.5625C10.297 76.6919 10.0424 76.5866 9.85458 76.3995C9.6668 76.2124 9.56119 75.9586 9.56091 75.694V70.1492H22.1125L22.1125 75.694ZM70.4391 75.694C70.4388 75.9587 70.3332 76.2124 70.1454 76.3995C69.9576 76.5867 69.703 76.6919 69.4374 76.6922H58.8891C58.6235 76.6919 58.3689 76.5866 58.1812 76.3995C57.9934 76.2123 57.8878 75.9586 57.8876 75.694V70.1492H70.4391L70.4391 75.694ZM76.6805 66.27C76.6803 66.4215 76.6199 66.5667 76.5124 66.6738C76.4049 66.7809 76.2592 66.8411 76.1072 66.8413H3.89271C3.74073 66.8411 3.59503 66.7809 3.48758 66.6738C3.38012 66.5667 3.31967 66.4215 3.3195 66.27V64.2118C3.31968 64.0604 3.38013 63.9152 3.48759 63.8081C3.59505 63.7011 3.74075 63.6408 3.89271 63.6407H76.1072C76.2592 63.6408 76.4049 63.701 76.5124 63.8081C76.6198 63.9152 76.6803 64.0604 76.6805 64.2118V66.27Z" fill="black" stroke="#F4F5F6" stroke-width="1.4" mask="url(#path-1-inside-1_63_346)"/>
<path d="M15.747 45.2049C14.6175 45.213 13.5157 45.5542 12.5805 46.1854C11.6453 46.8167 10.9186 47.7097 10.492 48.7519C10.0654 49.7942 9.958 50.9389 10.1834 52.0419C10.4087 53.1448 10.9568 54.1566 11.7583 54.9496C12.5599 55.7427 13.5792 56.2815 14.6876 56.498C15.7961 56.7146 16.944 56.5994 17.9868 56.1667C19.0296 55.7341 19.9205 55.0035 20.5472 54.0671C21.1739 53.1306 21.5083 52.0302 21.5083 50.9046C21.5011 49.388 20.8904 47.9362 19.8103 46.8676C18.7303 45.7991 17.2689 45.2011 15.747 45.2049ZM15.747 53.2966C15.274 53.2885 14.8139 53.1413 14.4246 52.8736C14.0352 52.6059 13.734 52.2295 13.5586 51.7917C13.3832 51.3539 13.3415 50.8742 13.4387 50.4128C13.536 49.9515 13.7678 49.5291 14.1052 49.1986C14.4425 48.8682 14.8703 48.6444 15.3349 48.5554C15.7994 48.4664 16.28 48.5161 16.7163 48.6984C17.1526 48.8807 17.5251 49.1873 17.7871 49.5798C18.049 49.9723 18.1888 50.4332 18.1888 50.9046C18.1825 51.5443 17.9219 52.1553 17.4642 52.6037C17.0064 53.0521 16.3889 53.3013 15.747 53.2966Z" fill="black"/>
<path d="M64.4293 56.6043C65.5588 56.5962 66.6606 56.255 67.5958 55.6237C68.531 54.9925 69.2577 54.0995 69.6843 53.0572C70.1109 52.015 70.2183 50.8702 69.9929 49.7673C69.7675 48.6643 69.2195 47.6526 68.4179 46.8595C67.6163 46.0665 66.5971 45.5277 65.4886 45.3111C64.3802 45.0945 63.2322 45.2098 62.1895 45.6424C61.1467 46.075 60.2558 46.8056 59.6291 47.7421C59.0024 48.6785 58.668 49.7789 58.668 50.9045C58.6752 52.4211 59.2858 53.873 60.3659 54.9415C61.446 56.0101 62.9073 56.6081 64.4293 56.6043ZM64.4293 48.5126C64.9023 48.5207 65.3623 48.6678 65.7517 48.9356C66.141 49.2033 66.4423 49.5797 66.6177 50.0175C66.7931 50.4553 66.8348 50.935 66.7376 51.3963C66.6403 51.8577 66.4084 52.2801 66.0711 52.6106C65.7337 52.941 65.3059 53.1648 64.8414 53.2538C64.3768 53.3428 63.8962 53.293 63.46 53.1108C63.0237 52.9285 62.6512 52.6218 62.3892 52.2293C62.1272 51.8368 61.9875 51.3759 61.9875 50.9045C61.9937 50.2649 62.2543 49.6539 62.7121 49.2055C63.1699 48.7571 63.7874 48.5079 64.4293 48.5126Z" fill="black"/>
<mask id="path-4-inside-2_63_346" fill="white">
<path d="M25.5487 20.0193L26.7226 20.4082C26.9546 21.1756 27.2526 21.9217 27.6135 22.638L27.0613 23.6864C26.7868 24.206 26.6851 24.7991 26.7711 25.38C26.8571 25.9609 27.1263 26.4996 27.5397 26.918L29.0691 28.474C29.4792 28.8906 30.0096 29.1691 30.5863 29.2707C31.1629 29.3723 31.757 29.292 32.2857 29.041L33.2681 28.5746C34.1613 29.0887 35.1082 29.5042 36.0919 29.8136L36.4095 30.7539C36.5974 31.3077 36.9551 31.7887 37.432 32.129C37.909 32.4693 38.4811 32.6518 39.0677 32.6508H41.2644C41.8511 32.6519 42.4234 32.4692 42.9004 32.1286C43.3773 31.7881 43.7349 31.3068 43.9225 30.7528L44.1826 29.9833C45.136 29.7314 46.0609 29.3824 46.9426 28.9419L47.6219 29.2917C48.142 29.5586 48.7327 29.6573 49.3117 29.5741C49.8908 29.491 50.4294 29.23 50.8527 28.8276L52.4321 27.3232C52.8591 26.9185 53.146 26.3889 53.2512 25.8111C53.3565 25.2333 53.2746 24.637 53.0175 24.1086L52.7512 23.5598C53.3733 22.5287 53.859 21.4219 54.1964 20.2668L54.7679 20.0802C55.327 19.899 55.8143 19.5464 56.1603 19.0728C56.5063 18.5992 56.6933 18.0287 56.6946 17.4429L56.699 15.2767C56.7003 14.6908 56.5158 14.1194 56.1716 13.6443C55.8275 13.1692 55.3415 12.8147 54.783 12.6315L54.2129 12.4426C53.9182 11.4189 53.507 10.4322 52.9874 9.50149L53.2693 8.96589C53.5445 8.44631 53.6467 7.85289 53.5609 7.2716C53.4751 6.6903 53.2058 6.15131 52.7921 5.73271L51.2649 4.179C50.8547 3.7623 50.3243 3.4835 49.7475 3.38145C49.1708 3.27939 48.5765 3.35916 48.0474 3.60964L47.3586 3.93631C46.3548 3.38881 45.2887 2.96343 44.1831 2.6693L43.9227 1.89856C43.7352 1.3444 43.3776 0.862958 42.9006 0.522278C42.4236 0.181599 41.8512 -0.00109766 41.2643 4.96169e-06H39.0676C38.4808 -0.00101652 37.9085 0.181623 37.4315 0.522143C36.9545 0.862664 36.5969 1.34387 36.4091 1.89783L36.0918 2.83714C35.2541 3.10036 34.4427 3.44044 33.6681 3.85301L32.7143 3.36195C32.1941 3.09309 31.6026 2.99301 31.0225 3.07573C30.4424 3.15844 29.9027 3.4198 29.479 3.82323L27.8994 5.32802C27.4725 5.73279 27.1858 6.2623 27.0806 6.84008C26.9754 7.41785 27.0573 8.01399 27.3144 8.54237L27.8301 9.60565C27.3801 10.4272 27.0146 11.2921 26.7392 12.1869L25.5647 12.5704C25.0054 12.7514 24.5179 13.1039 24.1717 13.5776C23.8255 14.0512 23.6385 14.6218 23.6373 15.2078L23.6328 17.374C23.6314 17.9599 23.816 18.5313 24.1601 19.0064C24.5042 19.4815 24.9902 19.836 25.5487 20.0193ZM26.956 15.597L29.5107 14.7631L29.7232 13.8573C29.9963 12.6914 30.4656 11.58 31.1111 10.5702L31.6077 9.79252L30.4728 7.45271L31.5096 6.46502L33.7893 7.63886L34.5907 7.14041C35.5753 6.5273 36.6517 6.07473 37.7794 5.79978L38.6667 5.58351L39.4353 3.30788H40.8963L41.6401 5.50961L42.5861 5.69447C43.9362 5.95673 45.2252 6.46862 46.3863 7.20369L47.1608 7.69353L49.147 6.75157L50.1497 7.77155L49.1624 9.64685L49.6932 10.4592C50.4147 11.5612 50.9263 12.7861 51.2025 14.0728L51.4014 14.9973L53.3787 15.6523L53.3759 17.0539L51.3957 17.7004L51.1928 18.624C50.8886 20.0138 50.31 21.3293 49.4906 22.494L48.9329 23.2886L49.859 25.1982L48.8219 26.1862L46.8728 25.1828L46.0838 25.6442C45.0012 26.2757 43.819 26.7195 42.5874 26.9567L41.6405 27.141L40.8964 29.343H39.4354L38.6667 27.0674L37.7796 26.8511C36.5375 26.548 35.3587 26.0293 34.2972 25.3186L33.5124 24.7946L31.1849 25.8995L30.182 24.8791L31.3945 22.5769L30.9246 21.7835C30.3668 20.841 29.9585 19.8183 29.7143 18.7515L29.506 17.8446L26.9531 16.9986L26.956 15.597Z"/>
</mask>
<path d="M25.5487 20.0193L26.7226 20.4082C26.9546 21.1756 27.2526 21.9217 27.6135 22.638L27.0613 23.6864C26.7868 24.206 26.6851 24.7991 26.7711 25.38C26.8571 25.9609 27.1263 26.4996 27.5397 26.918L29.0691 28.474C29.4792 28.8906 30.0096 29.1691 30.5863 29.2707C31.1629 29.3723 31.757 29.292 32.2857 29.041L33.2681 28.5746C34.1613 29.0887 35.1082 29.5042 36.0919 29.8136L36.4095 30.7539C36.5974 31.3077 36.9551 31.7887 37.432 32.129C37.909 32.4693 38.4811 32.6518 39.0677 32.6508H41.2644C41.8511 32.6519 42.4234 32.4692 42.9004 32.1286C43.3773 31.7881 43.7349 31.3068 43.9225 30.7528L44.1826 29.9833C45.136 29.7314 46.0609 29.3824 46.9426 28.9419L47.6219 29.2917C48.142 29.5586 48.7327 29.6573 49.3117 29.5741C49.8908 29.491 50.4294 29.23 50.8527 28.8276L52.4321 27.3232C52.8591 26.9185 53.146 26.3889 53.2512 25.8111C53.3565 25.2333 53.2746 24.637 53.0175 24.1086L52.7512 23.5598C53.3733 22.5287 53.859 21.4219 54.1964 20.2668L54.7679 20.0802C55.327 19.899 55.8143 19.5464 56.1603 19.0728C56.5063 18.5992 56.6933 18.0287 56.6946 17.4429L56.699 15.2767C56.7003 14.6908 56.5158 14.1194 56.1716 13.6443C55.8275 13.1692 55.3415 12.8147 54.783 12.6315L54.2129 12.4426C53.9182 11.4189 53.507 10.4322 52.9874 9.50149L53.2693 8.96589C53.5445 8.44631 53.6467 7.85289 53.5609 7.2716C53.4751 6.6903 53.2058 6.15131 52.7921 5.73271L51.2649 4.179C50.8547 3.7623 50.3243 3.4835 49.7475 3.38145C49.1708 3.27939 48.5765 3.35916 48.0474 3.60964L47.3586 3.93631C46.3548 3.38881 45.2887 2.96343 44.1831 2.6693L43.9227 1.89856C43.7352 1.3444 43.3776 0.862958 42.9006 0.522278C42.4236 0.181599 41.8512 -0.00109766 41.2643 4.96169e-06H39.0676C38.4808 -0.00101652 37.9085 0.181623 37.4315 0.522143C36.9545 0.862664 36.5969 1.34387 36.4091 1.89783L36.0918 2.83714C35.2541 3.10036 34.4427 3.44044 33.6681 3.85301L32.7143 3.36195C32.1941 3.09309 31.6026 2.99301 31.0225 3.07573C30.4424 3.15844 29.9027 3.4198 29.479 3.82323L27.8994 5.32802C27.4725 5.73279 27.1858 6.2623 27.0806 6.84008C26.9754 7.41785 27.0573 8.01399 27.3144 8.54237L27.8301 9.60565C27.3801 10.4272 27.0146 11.2921 26.7392 12.1869L25.5647 12.5704C25.0054 12.7514 24.5179 13.1039 24.1717 13.5776C23.8255 14.0512 23.6385 14.6218 23.6373 15.2078L23.6328 17.374C23.6314 17.9599 23.816 18.5313 24.1601 19.0064C24.5042 19.4815 24.9902 19.836 25.5487 20.0193ZM26.956 15.597L29.5107 14.7631L29.7232 13.8573C29.9963 12.6914 30.4656 11.58 31.1111 10.5702L31.6077 9.79252L30.4728 7.45271L31.5096 6.46502L33.7893 7.63886L34.5907 7.14041C35.5753 6.5273 36.6517 6.07473 37.7794 5.79978L38.6667 5.58351L39.4353 3.30788H40.8963L41.6401 5.50961L42.5861 5.69447C43.9362 5.95673 45.2252 6.46862 46.3863 7.20369L47.1608 7.69353L49.147 6.75157L50.1497 7.77155L49.1624 9.64685L49.6932 10.4592C50.4147 11.5612 50.9263 12.7861 51.2025 14.0728L51.4014 14.9973L53.3787 15.6523L53.3759 17.0539L51.3957 17.7004L51.1928 18.624C50.8886 20.0138 50.31 21.3293 49.4906 22.494L48.9329 23.2886L49.859 25.1982L48.8219 26.1862L46.8728 25.1828L46.0838 25.6442C45.0012 26.2757 43.819 26.7195 42.5874 26.9567L41.6405 27.141L40.8964 29.343H39.4354L38.6667 27.0674L37.7796 26.8511C36.5375 26.548 35.3587 26.0293 34.2972 25.3186L33.5124 24.7946L31.1849 25.8995L30.182 24.8791L31.3945 22.5769L30.9246 21.7835C30.3668 20.841 29.9585 19.8183 29.7143 18.7515L29.506 17.8446L26.9531 16.9986L26.956 15.597Z" fill="#2060CD" stroke="#F4F5F6" mask="url(#path-4-inside-2_63_346)"/>
<path d="M40.165 8.91724H40.166C44.4656 8.91724 47.9433 12.2518 47.9434 16.3254C47.9434 20.3991 44.4656 23.7336 40.166 23.7336C35.8669 23.7336 32.3892 20.3996 32.3887 16.3264C32.3933 14.5143 33.0812 12.7692 34.3174 11.4397L34.3184 11.4407C35.0652 10.6406 35.9702 10.0029 36.9766 9.5686C37.9828 9.13441 39.0685 8.91267 40.165 8.91724ZM40.166 11.7249C39.461 11.7197 38.7624 11.8601 38.1143 12.137C37.4655 12.4142 36.8812 12.8228 36.3984 13.3362H36.3975C35.6386 14.1477 35.214 15.2149 35.208 16.3245V16.3254C35.208 18.8805 37.4509 20.926 40.166 20.926C42.8812 20.926 45.124 18.8805 45.124 16.3254C45.124 13.7704 42.8811 11.7249 40.166 11.7249Z" fill="#2060CD" stroke="#F4F5F6" stroke-width="0.5"/>
</svg>
