<svg width="60" height="70" viewBox="0 0 60 70" fill="none" xmlns="http://www.w3.org/2000/svg">
<path d="M36.6779 12.2812C42.3446 12.2813 46.9553 16.8919 46.9553 22.5586C46.9553 23.2511 46.3938 23.8125 45.7014 23.8125C45.0089 23.8125 44.4475 23.2511 44.4474 22.5586C44.4474 18.2743 40.9623 14.7891 36.6779 14.7891C35.9854 14.7891 35.424 14.2276 35.424 13.5352C35.424 12.8427 35.9854 12.2812 36.6779 12.2812Z" fill="#2060CD" stroke="#F4F5F6" stroke-width="0.5"/>
<path d="M36.6779 6.26562C45.6617 6.26563 52.9709 13.5748 52.9709 22.5586C52.9709 23.2511 52.4095 23.8125 51.717 23.8125C51.0245 23.8125 50.4631 23.2511 50.4631 22.5586C50.4631 14.9572 44.2793 8.77344 36.6779 8.77344C35.9854 8.77344 35.424 8.21202 35.424 7.51953C35.424 6.82704 35.9854 6.26562 36.6779 6.26562Z" fill="#2060CD" stroke="#F4F5F6" stroke-width="0.5"/>
<path d="M36.6779 0.25C48.9788 0.250001 58.9865 10.2579 58.9865 22.5586C58.9865 23.2511 58.4251 23.8125 57.7326 23.8125C57.0401 23.8125 56.4787 23.2511 56.4787 22.5586C56.4787 11.6401 47.5964 2.75781 36.6779 2.75781C35.9854 2.75781 35.424 2.1964 35.424 1.50391C35.424 0.811412 35.9854 0.25 36.6779 0.25Z" fill="#2060CD" stroke="#F4F5F6" stroke-width="0.5"/>
<path d="M17.1133 15.7571C17.6028 15.2674 18.3968 15.2674 18.8867 15.7571L30.2959 27.1663L30.4727 26.9895L32.7812 24.6799L32.9062 24.5549L32.8301 24.3958C32.0751 22.8114 32.3532 20.8543 33.6621 19.5452C35.3236 17.8839 38.0279 17.8839 39.6895 19.5452C41.3509 21.2067 41.3509 23.911 39.6895 25.5725C38.8589 26.403 37.7676 26.8186 36.6758 26.8186C36.0467 26.8186 35.4176 26.6802 34.8389 26.4045L34.6797 26.3284L34.5547 26.4534L32.2461 28.7629L32.0693 28.9397L43.4775 40.3479C43.7127 40.583 43.8447 40.9021 43.8447 41.2346C43.8447 41.5671 43.7127 41.8862 43.4775 42.1213L42.0996 43.4993C38.5783 47.0204 33.8978 48.9592 28.918 48.9592C25.8156 48.9592 22.8295 48.2066 20.168 46.7883L20.0039 46.7004L19.873 46.8323L17.9863 48.719C17.8243 48.881 17.6528 49.0312 17.4746 49.1692L17.3164 49.2922L17.4023 49.4739L22.873 61.0833L22.9404 61.2268H26.5205C27.213 61.2268 27.7744 61.7882 27.7744 62.4807V68.4963C27.7743 69.1887 27.2129 69.7502 26.5205 69.7502H1.50391C0.811492 69.7502 0.25013 69.1887 0.25 68.4963V62.4807C0.25 61.7882 0.811411 61.2268 1.50391 61.2268H5.08398L5.15137 61.0833L10.7578 49.1868L10.8369 49.0198L10.7002 48.8948C10.6374 48.8376 10.5759 48.7793 10.5156 48.719C8.45625 46.6596 8.45625 43.3077 10.5156 41.2483L12.4033 39.3616L12.5342 39.2307L12.4463 39.0667C11.0281 36.4053 10.2754 33.4193 10.2754 30.3167C10.2754 25.3369 12.2142 20.6564 15.7354 17.135L17.1133 15.7571ZM2.75781 67.2424H25.2666V63.7346H2.75781V67.2424ZM12.998 50.3157L8.02441 60.8704L7.85645 61.2268H20.1689L20 60.8704L15.0566 50.3801L14.9814 50.22L14.8047 50.2375C14.6217 50.2565 14.4364 50.2668 14.25 50.2668C13.9175 50.2668 13.5901 50.2356 13.2705 50.176L13.0801 50.1409L12.998 50.3157ZM12.2891 43.0217C11.2071 44.1037 11.2071 45.8637 12.2891 46.9456C12.8128 47.4693 13.5104 47.759 14.251 47.759C14.9914 47.7589 15.6892 47.47 16.2129 46.9465L17.6387 45.5198L17.8398 45.3186L17.6133 45.1448C16.9572 44.6424 16.3296 44.0935 15.7354 43.4993C15.1411 42.905 14.5923 42.2774 14.0898 41.6213L13.916 41.3948L12.2891 43.0217ZM17.8232 18.594L17.5098 18.9084C11.2188 25.1994 11.2188 35.4348 17.5098 41.7258C23.8007 48.0162 34.0353 48.0164 40.3262 41.7258L40.6406 41.4114L40.8184 41.2346L40.6406 41.0579L18 18.4172L17.8232 18.594ZM37.9121 21.3147C37.229 20.6359 36.1224 20.6356 35.4395 21.3147C34.755 21.9714 34.7539 23.1392 35.4355 23.7981V23.7991C36.1196 24.4829 37.2321 24.4828 37.916 23.7991L37.915 23.7981C38.5975 23.1394 38.5969 21.9717 37.9121 21.3147Z" fill="black" stroke="#F4F5F6" stroke-width="0.5"/>
</svg>
