<svg width="75" height="71" viewBox="0 0 75 71" fill="none" xmlns="http://www.w3.org/2000/svg">
<path d="M21.0471 34.4976H24.1487C24.893 34.4976 25.4972 35.1009 25.4973 35.8452C25.4973 36.5896 24.893 37.1929 24.1487 37.1929H21.0471C20.3028 37.1928 19.6995 36.5895 19.6995 35.8452C19.6995 35.101 20.3029 34.4976 21.0471 34.4976Z" fill="#2060CD" stroke="#F4F5F6" stroke-width="0.5"/>
<path d="M50.2178 34.4976H53.3193C54.0636 34.4976 54.6679 35.1009 54.668 35.8452C54.668 36.5896 54.0638 37.1929 53.3193 37.1929H50.2178C49.4735 37.1928 48.8701 36.5895 48.8701 35.8452C48.8702 35.101 49.4735 34.4976 50.2178 34.4976Z" fill="#2060CD" stroke="#F4F5F6" stroke-width="0.5"/>
<path d="M61.3517 19.1055L61.1759 19.0508L56.0206 17.4541C55.8329 17.3959 55.7536 17.3348 55.7198 17.292C55.6924 17.2571 55.6756 17.2099 55.6837 17.1172C55.6926 17.0161 55.7295 16.8889 55.7892 16.7168C55.8454 16.5546 55.9226 16.3504 55.9894 16.1348C56.0559 15.9198 56.1108 15.6953 56.1613 15.5127C56.2143 15.3208 56.264 15.1674 56.3243 15.0518C56.3837 14.938 56.4412 14.8859 56.4952 14.8623C56.5483 14.8393 56.6427 14.8248 56.8175 14.8789H56.8185L63.0978 16.8242C63.662 16.999 64.0468 17.5208 64.047 18.1113V22.1738C64.0469 22.918 63.4437 23.5215 62.6993 23.5215C61.9552 23.5214 61.3518 22.918 61.3517 22.1738V19.1055Z" fill="#2060CD" stroke="#F4F5F6" stroke-width="0.5"/>
<path d="M46.7202 14.8792C46.9029 14.8228 46.9645 14.8492 46.979 14.8577C46.9967 14.868 47.0337 14.9021 47.0708 15.0305C47.1076 15.1578 47.1291 15.3179 47.1606 15.5256C47.1909 15.7244 47.229 15.9538 47.3003 16.1838C47.3717 16.4145 47.4671 16.6174 47.5513 16.7874C47.64 16.9664 47.7058 17.091 47.7417 17.1985C47.7759 17.3011 47.7608 17.3259 47.7593 17.3284C47.7526 17.3398 47.7101 17.3946 47.5171 17.4543L42.3628 19.05L42.186 19.1047V22.1731C42.186 22.9178 41.5827 23.5217 40.8384 23.5217C40.0941 23.5217 39.4907 22.9174 39.4907 22.1731V18.1116C39.4907 17.5209 39.8756 16.9993 40.4399 16.8245L46.7202 14.8792Z" fill="#2060CD" stroke="#F4F5F6" stroke-width="0.5"/>
<path d="M29.4261 53.271C32.2208 53.2711 34.4935 55.5442 34.4935 58.3374C34.4934 61.1306 32.2203 63.4038 29.4271 63.4038H29.4261C26.633 63.4038 24.3599 61.1306 24.3597 58.3374C24.3597 55.5441 26.6329 53.271 29.4261 53.271ZM29.4271 55.9663C28.1185 55.9664 27.0551 57.03 27.0551 58.3374C27.0553 59.6446 28.1189 60.7075 29.4261 60.7075H29.4271C30.7344 60.7075 31.798 59.6446 31.7982 58.3374C31.7982 57.03 30.7345 55.9663 29.4271 55.9663Z" fill="black" stroke="#F4F5F6" stroke-width="0.5"/>
<path d="M44.9423 53.271C47.7368 53.2711 50.0096 55.5442 50.0096 58.3374C50.0095 61.1306 47.7364 63.4038 44.9432 63.4038H44.9423C42.1491 63.4038 39.876 61.1306 39.8759 58.3374C39.8759 55.5441 42.149 53.271 44.9423 53.271ZM44.9432 55.9663C43.6346 55.9664 42.5712 57.03 42.5712 58.3374C42.5714 59.6446 43.635 60.7075 44.9423 60.7075H44.9432C46.2503 60.7075 47.3141 59.6446 47.3143 58.3374C47.3143 57.03 46.2506 55.9663 44.9432 55.9663Z" fill="black" stroke="#F4F5F6" stroke-width="0.5"/>
<path d="M60.4601 53.271C63.2548 53.2711 65.5275 55.5442 65.5275 58.3374C65.5273 61.1306 63.2543 63.4038 60.4611 63.4038H60.4601C57.6669 63.4038 55.3938 61.1306 55.3937 58.3374C55.3937 55.5441 57.6668 53.271 60.4601 53.271ZM60.4611 55.9663C59.1525 55.9665 58.089 57.03 58.089 58.3374C58.0892 59.6446 59.1528 60.7075 60.4601 60.7075H60.4611C61.7683 60.7075 62.8319 59.6446 62.8322 58.3374C62.8322 57.03 61.7684 55.9663 60.4611 55.9663Z" fill="black" stroke="#F4F5F6" stroke-width="0.5"/>
<path d="M13.91 53.271C16.7047 53.2711 18.9774 55.5442 18.9774 58.3374C18.9773 61.1306 16.7042 63.4038 13.911 63.4038H13.91C11.1168 63.4038 8.84377 61.1306 8.84363 58.3374C8.84363 55.5441 11.1167 53.271 13.91 53.271ZM13.911 55.9663C12.6025 55.9665 11.5389 57.03 11.5389 58.3374C11.5392 59.6446 12.6028 60.7075 13.91 60.7075H13.911C15.2181 60.7075 16.2819 59.6446 16.2821 58.3374C16.2821 57.03 15.2184 55.9663 13.911 55.9663Z" fill="black" stroke="#F4F5F6" stroke-width="0.5"/>
<path d="M13.002 27.511H32.1982C32.9425 27.511 33.5458 28.1144 33.5459 28.8586V46.9065H40.8242V28.8586C40.8243 28.1144 41.4276 27.511 42.1719 27.511H61.3682C62.1124 27.511 62.7157 28.1144 62.7158 28.8586V46.9045L62.96 46.9104C69.138 47.0544 74.12 52.1253 74.1201 58.3372C74.12 64.6395 68.9917 69.7668 62.6895 69.7668H11.6797C5.37766 69.7666 0.250161 64.6393 0.25 58.3372C0.25 52.1253 5.23212 47.0544 11.4102 46.9104L11.6543 46.9045V28.8586C11.6544 28.1144 12.2577 27.511 13.002 27.511ZM11.6797 49.6028C6.86335 49.603 2.94531 53.5209 2.94531 58.3372C2.94547 63.1534 6.86344 67.0713 11.6797 67.0715H62.6895C67.5059 67.0715 71.4245 63.1536 71.4248 58.3372C71.4248 53.5208 67.5059 49.6028 62.6895 49.6028H11.6797ZM14.3496 46.9065H30.8506V30.2063H14.3496V46.9065ZM43.5195 46.9065H60.0205V30.2063H43.5195V46.9065Z" fill="black" stroke="#F4F5F6" stroke-width="0.5"/>
<path d="M3.55493 0.25H70.8147C71.5588 0.250256 72.1623 0.85353 72.1624 1.59766V8.61133C72.1623 9.35547 71.5588 9.95873 70.8147 9.95898H56.8538L57.0706 10.334C57.5867 11.2299 57.8821 12.2685 57.8821 13.375C57.8821 16.7447 55.1399 19.4862 51.7698 19.4863C48.3995 19.4863 45.6575 16.7446 45.6575 13.375C45.6575 12.2683 45.9527 11.2299 46.469 10.334L46.6848 9.95898H3.55493C2.81075 9.95891 2.20741 9.35567 2.20728 8.61133V1.59766C2.20735 0.853418 2.81069 0.250073 3.55493 0.25ZM51.7698 9.95898C49.8855 9.95898 48.3528 11.4911 48.3528 13.375C48.3529 15.2589 49.8856 16.791 51.7698 16.791C53.6539 16.7909 55.1867 15.2588 55.1868 13.375C55.1868 11.4913 53.6539 9.9591 51.7698 9.95898ZM4.90259 7.26367H69.4661V2.94531H4.90259V7.26367Z" fill="black" stroke="#F4F5F6" stroke-width="0.5"/>
</svg>
