<svg width="69" height="69" viewBox="0 0 69 69" fill="none" xmlns="http://www.w3.org/2000/svg">
<path d="M38.6097 41.6248H59.2972C59.9777 41.6248 60.5296 42.1765 60.5296 42.8572V67.5173C60.5296 68.1979 59.9777 68.7497 59.2972 68.7498C58.6166 68.7498 58.0648 68.198 58.0648 67.5173V60.53H39.8421V67.5173C39.8421 68.198 39.2903 68.7498 38.6097 68.7498C37.9291 68.7498 37.3773 68.198 37.3773 67.5173V42.8572C37.3773 42.1765 37.9291 41.6248 38.6097 41.6248ZM39.8421 58.0652H58.0648V52.3093H39.8421V58.0652ZM39.8421 49.8445H58.0648V44.0896H39.8421V49.8445Z" fill="#2060CD" stroke="#F4F5F6" stroke-width="0.5"/>
<path d="M30.3901 0.25C31.0707 0.25 31.6225 0.801792 31.6225 1.48242V5.59277C31.6224 8.53829 29.2253 10.9346 26.2797 10.9346H22.1703C20.5835 10.9346 19.2925 12.2256 19.2924 13.8125C19.2924 14.4931 18.7406 15.0449 18.06 15.0449C17.3794 15.0449 16.8276 14.4931 16.8276 13.8125C16.8277 10.8669 19.2248 8.46973 22.1703 8.46973H26.2797C27.8666 8.46973 29.1575 7.17959 29.1577 5.59277V1.48242C29.1577 0.801848 29.7095 0.250091 30.3901 0.25Z" fill="#2060CD" stroke="#F4F5F6" stroke-width="0.5"/>
<path d="M22.1694 0.25C22.85 0.25 23.4018 0.801792 23.4018 1.48242C23.4018 2.16305 22.85 2.71484 22.1694 2.71484C16.0499 2.71486 11.0718 7.69295 11.0717 13.8125C11.0717 14.4931 10.5199 15.0449 9.83929 15.0449C9.15866 15.0449 8.60687 14.4931 8.60687 13.8125C8.60696 6.33438 14.6912 0.250018 22.1694 0.25Z" fill="#2060CD" stroke="#F4F5F6" stroke-width="0.5"/>
<path d="M9.70215 20.8003H18.0596C18.6735 20.8003 19.1942 21.252 19.2803 21.8599L23.21 49.6294L23.2402 49.8452H29.1572V34.6372C29.1572 33.9567 29.7091 33.4049 30.3896 33.4048H67.5176C68.1982 33.4048 68.75 33.9565 68.75 34.6372V67.5171C68.75 68.1977 68.1982 68.7495 67.5176 68.7495H1.48242C0.801792 68.7495 0.25 68.1977 0.25 67.5171V51.0776C0.25 50.397 0.801792 49.8452 1.48242 49.8452H4.52246L4.55273 49.6294L8.48242 21.8599C8.56855 21.2522 9.08856 20.8005 9.70215 20.8003ZM31.6221 51.0767C31.6221 51.7573 31.0703 52.3091 30.3896 52.3091H2.71484V66.2847H8.46973V59.2974C8.46973 58.6169 9.02172 58.0652 9.70215 58.0649H26.2803C26.9607 58.0652 27.5127 58.6169 27.5127 59.2974V66.2847H66.2852V35.8696H31.6221V51.0767ZM10.9346 66.2847H25.0479V60.5298H10.9346V66.2847ZM10.7422 23.48L7.05176 49.5601L7.01172 49.8452H20.751L20.71 49.5601L17.0195 23.48L16.9893 23.2651H10.7725L10.7422 23.48Z" fill="black" stroke="#F4F5F6" stroke-width="0.5"/>
</svg>
