<svg width="67" height="58" viewBox="0 0 67 58" fill="none" xmlns="http://www.w3.org/2000/svg">
<path d="M20.2895 0.257812C24.8116 0.121407 29.2251 1.79451 33.1303 5.13184L33.2953 5.27344L33.4584 5.12891C37.134 1.87245 41.4396 0.21724 45.9818 0.317383C50.4153 0.413923 54.7406 2.18729 58.1586 5.31641C61.5749 8.44408 63.6813 12.5768 64.0971 16.9502C64.5632 21.8543 62.894 26.7676 59.2436 31.165L59.2367 31.1729C59.2103 31.2076 59.1817 31.2411 59.1508 31.2734C58.5815 31.8684 43.7075 47.415 37.1781 54.2393L34.1684 57.3848C33.9454 57.6178 33.6359 57.75 33.3129 57.75C32.99 57.7499 32.6806 57.6181 32.4574 57.3848C32.2493 57.1673 24.2561 48.8124 17.3666 41.6113L7.47696 31.2734H7.47598C7.46365 31.2604 7.45174 31.2468 7.43985 31.2334C3.81588 27.0913 2.13692 22.2771 2.56583 17.3076C2.94979 12.8597 5.00697 8.63469 8.3627 5.41309C11.6905 2.2184 15.9269 0.390173 20.2895 0.257812ZM20.267 2.62988C16.3154 2.77717 12.7006 4.53069 10.0023 7.12109C7.32383 9.69258 5.34889 13.2885 4.93204 17.2646C4.51452 21.2471 5.66194 25.5943 9.20157 29.6514L9.20938 29.6602L19.0775 39.9746C24.5523 45.697 30.724 52.1488 33.1322 54.666L33.3129 54.8545L33.4936 54.666L35.4682 52.6025C41.8753 45.906 56.3171 30.811 57.394 29.6855L57.3998 29.6797L57.4057 29.6729C60.954 25.4085 62.1406 21.0279 61.7338 17.0684C61.3275 13.1138 59.3338 9.60197 56.56 7.0625C53.8355 4.56835 50.1387 2.83841 46.1654 2.68164C42.1857 2.52471 37.9453 3.94703 34.1488 7.72852C33.6948 8.1808 32.963 8.1892 32.4984 7.74805C28.4952 3.94586 24.2234 2.48252 20.267 2.62988Z" fill="black" stroke="#F4F5F6" stroke-width="0.5"/>
<path d="M22.677 12.1404H22.6858L22.7805 12.1453C23.2508 12.1864 23.6559 12.5046 23.8029 12.9597L27.7317 25.1121L27.7873 25.2849H33.3381C33.8567 25.2851 34.3146 25.6227 34.468 26.1179L37.4338 35.6941L37.6799 36.489L37.9123 35.6892L44.2278 13.9822C44.3767 13.471 44.8476 13.1212 45.3781 13.1296H45.3791C45.9107 13.1364 46.3724 13.4973 46.508 14.0115L49.8459 26.6755L49.8947 26.8621H65.2922C65.9458 26.8621 66.4757 27.3921 66.4758 28.0457C66.4758 28.6993 65.9458 29.2292 65.2922 29.2292H48.9836C48.4462 29.2292 47.9762 28.8672 47.8391 28.3474L45.5373 19.616L45.3078 18.7439L45.0559 19.6101L38.8518 40.9343C38.7059 41.436 38.2484 41.7833 37.7258 41.7878C37.7216 41.7878 37.718 41.7878 37.716 41.7878C37.1978 41.7878 36.7388 41.4498 36.5852 40.9539L32.5197 27.8279L32.4651 27.6521H26.926C26.4129 27.652 25.9581 27.321 25.8 26.8328L22.8811 17.8015L22.6487 17.0847L22.4065 17.7986L19.2014 27.2273C19.0382 27.707 18.587 28.0291 18.0803 28.0291H1.43381C0.780163 28.0291 0.250214 27.4991 0.250214 26.8455C0.250465 26.192 0.780318 25.6628 1.43381 25.6628H17.2326L17.2903 25.4929L21.5559 12.9431C21.7191 12.463 22.1706 12.1404 22.677 12.1404Z" fill="#2060CD" stroke="#F4F5F6" stroke-width="0.5"/>
</svg>
