<svg width="71" height="71" viewBox="0 0 71 71" fill="none" xmlns="http://www.w3.org/2000/svg">
<path d="M35.4777 35.1975C36.1414 34.9806 36.8554 35.3425 37.0724 36.0061L41.0197 48.0715V48.0725C41.0214 48.0778 41.022 48.0793 41.0236 48.0842V48.0852L45.1974 60.844V60.845L45.2023 60.8567C45.2165 60.8941 45.2287 60.9322 45.2394 60.9709V60.9719L45.2433 60.9836L47.6886 68.4573C47.9056 69.1208 47.5438 69.8346 46.88 70.052C46.7491 70.0948 46.6163 70.1155 46.4865 70.1155C45.954 70.1155 45.4586 69.7762 45.2843 69.2434L43.1583 62.7434L43.1017 62.5706H22.4493L22.3927 62.7434L20.2667 69.2434C20.0925 69.7762 19.5969 70.1155 19.0646 70.1155C18.9348 70.1154 18.8027 70.0948 18.672 70.052C18.0083 69.8349 17.6462 69.121 17.8634 68.4573L20.3224 60.9387L20.3234 60.9377L20.3273 60.926L24.5275 48.0852L24.5294 48.0813L24.5314 48.0745L28.4796 36.0061C28.6968 35.3424 29.4109 34.9802 30.0743 35.1975C30.7381 35.4147 31.1001 36.1285 30.8829 36.7922L27.589 46.8616L27.4816 47.1897H38.0704L37.963 46.8616L34.6691 36.7922C34.4519 36.1285 34.8139 35.4147 35.4777 35.1975ZM26.5978 49.8909L23.3839 59.7141L23.2775 60.0422H42.2745L42.1671 59.7141L38.9532 49.8909L38.8976 49.719H26.6544L26.5978 49.8909Z" fill="#2060CD" stroke="#F4F5F6" stroke-width="0.5"/>
<path d="M64.7882 20.0876C65.4865 20.0877 66.0529 20.654 66.0529 21.3523V60.4685C66.0527 61.1667 65.4864 61.7331 64.7882 61.7332C64.0899 61.7332 63.5237 61.1668 63.5236 60.4685V21.3523C63.5236 20.6539 64.0899 20.0876 64.7882 20.0876Z" fill="#2060CD" stroke="#F4F5F6" stroke-width="0.5"/>
<path d="M5.83411 36.5713C6.5324 36.5714 7.09875 37.1376 7.09875 37.8359V56.417C7.09873 57.1153 6.53238 57.6816 5.83411 57.6816C5.13577 57.6816 4.56948 57.1153 4.56946 56.417V37.8359C4.56946 37.1376 5.13575 36.5713 5.83411 36.5713Z" fill="#2060CD" stroke="#F4F5F6" stroke-width="0.5"/>
<path d="M1.64343 55.1523H10.0253C10.7236 55.1523 11.2899 55.7186 11.2899 56.417V68.8506C11.2897 69.5489 10.7235 70.1143 10.0253 70.1143H1.64343C0.945217 70.1143 0.379006 69.5487 0.378784 68.8506V56.417C0.378784 55.7186 0.94508 55.1523 1.64343 55.1523ZM2.90808 67.5859H8.76062V57.6816H2.90808V67.5859Z" fill="black" stroke="#F4F5F6" stroke-width="0.5"/>
<path d="M60.5975 59.2036H68.9794C69.6777 59.2036 70.244 59.7699 70.244 60.4683V68.8501C70.244 69.5486 69.6777 70.1147 68.9794 70.1147H60.5975C59.8992 70.1147 59.3329 69.5485 59.3329 68.8501V60.4683C59.3329 59.7699 59.8992 59.2036 60.5975 59.2036ZM61.8622 67.5854H67.7147V61.7329H61.8622V67.5854Z" fill="black" stroke="#F4F5F6" stroke-width="0.5"/>
<path d="M56.0244 0.251953C56.3662 0.232091 56.7011 0.352713 56.9531 0.584961C60.8282 4.15799 63.6233 8.82713 65.0332 14.0889C67.5444 23.4614 65.1989 33.3247 58.9316 39.833C58.6904 40.0837 58.3607 40.2206 58.0215 40.2207C57.9164 40.2207 57.8104 40.2076 57.7061 40.1807H57.7051C57.2637 40.0667 56.9177 39.7235 56.7998 39.2832L53.416 26.6562L53.3516 26.415L53.1104 26.4795L37.7246 30.6016L37.418 30.6846L37.5703 30.9639C37.9941 31.7392 38.2353 32.6277 38.2354 33.5723C38.2354 36.582 35.7861 39.0312 32.7764 39.0312C29.8125 39.0312 27.3944 36.6557 27.3213 33.709L27.3135 33.3916L27.0068 33.4736L2.52832 40.0332C2.41841 40.0627 2.30815 40.0762 2.2002 40.0762C1.64188 40.0761 1.13079 39.7032 0.979492 39.1387L0.292969 36.5752C0.206225 36.2513 0.252282 35.9058 0.419922 35.6152L0.418945 35.6143L4.46973 28.6006C4.63746 28.3102 4.91346 28.0975 5.2373 28.0107L50.2861 15.9404L50.5273 15.876L50.4629 15.6338L48.6885 9.01172C48.5801 8.60733 48.6795 8.17545 48.9531 7.8584L55.1387 0.688477C55.3346 0.46143 55.6041 0.312294 55.8975 0.265625L56.0244 0.251953ZM50.9404 18.3828L6.49805 30.292L6.39844 30.3184L6.34668 30.4082L2.92285 36.3369L2.87109 36.4268L2.89844 36.5264L3.03125 37.0215L3.0957 37.2627L3.33691 37.1982L27.9639 30.5996H27.9648C28.0138 30.5864 28.0651 30.577 28.1211 30.5693L28.2305 30.5537L28.293 30.4639C29.2805 29.0441 30.9217 28.1133 32.7764 28.1133C33.6028 28.1133 34.3863 28.2989 35.0889 28.6289L35.1631 28.6641L35.2441 28.6484C35.2458 28.6481 35.2474 28.6468 35.249 28.6465L35.2627 28.6436L52.4561 24.0371L52.6973 23.9717L52.6328 23.7305L51.2471 18.5596L51.1826 18.3184L50.9404 18.3828ZM32.7764 30.6426C31.1608 30.6426 29.8468 31.9566 29.8467 33.5723C29.8467 35.1881 31.1607 36.5019 32.7764 36.502C34.3922 36.502 35.7062 35.188 35.7061 33.5723C35.7059 31.9566 34.3921 30.6426 32.7764 30.6426ZM55.998 3.56445L51.3906 8.90332L51.3047 9.00391L51.3389 9.13184L58.4932 35.8311L58.6279 36.333L58.9355 35.915C63.2036 30.1262 64.6052 22.2646 62.5898 14.7432C61.4465 10.4766 59.3087 6.6385 56.3682 3.55469L56.1777 3.35547L55.998 3.56445ZM35.2725 28.6406C35.2701 28.6414 35.2666 28.6408 35.2637 28.6416C35.2679 28.6404 35.2716 28.6396 35.2744 28.6387L35.2725 28.6406Z" fill="black" stroke="#F4F5F6" stroke-width="0.5"/>
</svg>
